<?xml version="1.0" encoding="utf-8"?>
<!-- Generator: Adobe Illustrator 16.0.1, SVG Export Plug-In . SVG Version: 6.00 Build 0)  -->
<!DOCTYPE svg PUBLIC "-//W3C//DTD SVG 1.1//EN" "http://www.w3.org/Graphics/SVG/1.1/DTD/svg11.dtd" [
	<!ENTITY st0 "fill:#FFFFFF;">
	<!ENTITY st1 "display:inline;">
	<!ENTITY st2 "display:none;">
]>
<svg version="1.1" xmlns="http://www.w3.org/2000/svg" xmlns:xlink="http://www.w3.org/1999/xlink" x="0px" y="0px" width="30px"
	 height="30px" viewBox="0 0 30 30" style="enable-background:new 0 0 30 30;" xml:space="preserve">
<g id="Layer_1" style="&st2;">
	<g style="&st1;">
		<path style="&st0;" d="M25.7,15l-9,9l-0.8-0.8l6.5-7.7H5.9v-1.7h16.4L15.9,6l0.8-0.8l9,9V15z"/>
	</g>
</g>
<g id="Layer_2" style="&st2;">
	<g style="&st1;">
		<path style="&st0;" d="M10.4,22.1H10l-4.4-6.2L6.4,15l4,3.8L22.2,8.1l0.9,0.9L10.4,22.1z"/>
	</g>
</g>
<g id="Layer_3">
	<g>
		<path style="&st0;" d="M15,16.4l-6.6,6l-1-1l6.1-6.6L7.4,8.3l1-1l6.6,6l6.6-6.1l1,1l-6,6.6l6,6.6l-1,1L15,16.4z"/>
	</g>
</g>
</svg>
